<svg width="20" height="21" viewBox="0 0 20 21" fill="none" xmlns="http://www.w3.org/2000/svg">
<g id="vuesax/bold/diagram">
<g id="diagram">
<g id="Vector">
<mask id="path-1-inside-1_10145_109" fill="white">
<path d="M18.3337 19.4584H4.16699C2.44199 19.4584 1.04199 18.0584 1.04199 16.3334V2.16675C1.04199 1.82508 1.32533 1.54175 1.66699 1.54175C2.00866 1.54175 2.29199 1.82508 2.29199 2.16675V16.3334C2.29199 17.3667 3.13366 18.2084 4.16699 18.2084H18.3337C18.6753 18.2084 18.9587 18.4917 18.9587 18.8334C18.9587 19.1751 18.6753 19.4584 18.3337 19.4584Z"/>
</mask>
<path d="M18.3337 17.4897H4.16699V21.4272H18.3337V17.4897ZM4.16699 17.4897C3.5293 17.4897 3.01074 16.9711 3.01074 16.3334H-0.926758C-0.926758 19.1457 1.35468 21.4272 4.16699 21.4272V17.4897ZM3.01074 16.3334V2.16675H-0.926758V16.3334H3.01074ZM3.01074 2.16675C3.01074 2.91239 2.41264 3.5105 1.66699 3.5105V-0.427002C0.238015 -0.427002 -0.926758 0.737771 -0.926758 2.16675H3.01074ZM1.66699 3.5105C0.921348 3.5105 0.323242 2.91239 0.323242 2.16675H4.26074C4.26074 0.737771 3.09597 -0.427002 1.66699 -0.427002V3.5105ZM0.323242 2.16675V16.3334H4.26074V2.16675H0.323242ZM0.323242 16.3334C0.323242 18.4541 2.04635 20.1772 4.16699 20.1772V16.2397C4.17812 16.2397 4.19271 16.2423 4.20649 16.2482C4.21894 16.2534 4.22779 16.26 4.23411 16.2663C4.24043 16.2726 4.24698 16.2815 4.25225 16.2939C4.2581 16.3077 4.26074 16.3223 4.26074 16.3334H0.323242ZM4.16699 20.1772H18.3337V16.2397H4.16699V20.1772ZM18.3337 20.1772C17.588 20.1772 16.9899 19.5791 16.9899 18.8334H20.9274C20.9274 17.4044 19.7626 16.2397 18.3337 16.2397V20.1772ZM16.9899 18.8334C16.9899 18.0878 17.588 17.4897 18.3337 17.4897V21.4272C19.7626 21.4272 20.9274 20.2624 20.9274 18.8334H16.9899Z" fill="#7F7E7E" mask="url(#path-1-inside-1_10145_109)"/>
</g>
<g id="Vector_2">
<mask id="path-3-inside-2_10145_109" fill="white">
<path d="M4.16684 15.2917C4.02518 15.2917 3.87518 15.2417 3.75851 15.1417C3.50018 14.9167 3.46684 14.525 3.69184 14.2583L7.51684 9.79168C7.93351 9.30835 8.53351 9.01668 9.16684 8.99168C9.80018 8.97501 10.4252 9.20835 10.8752 9.65835L11.6668 10.45C11.8752 10.6583 12.1418 10.7583 12.4418 10.7583C12.7335 10.75 13.0002 10.6167 13.1918 10.3917L17.0168 5.92501C17.2418 5.66668 17.6335 5.63335 17.9002 5.85835C18.1585 6.08335 18.1918 6.47501 17.9668 6.74168L14.1418 11.2083C13.7252 11.6917 13.1252 11.9833 12.4918 12.0083C11.8502 12.025 11.2335 11.7917 10.7835 11.3417L10.0002 10.55C9.79184 10.3417 9.51684 10.2333 9.22518 10.2417C8.93351 10.25 8.66684 10.3833 8.47518 10.6083L4.65018 15.075C4.51684 15.2167 4.34184 15.2917 4.16684 15.2917Z"/>
</mask>
<path d="M4.16684 15.2917C4.02518 15.2917 3.87518 15.2417 3.75851 15.1417C3.50018 14.9167 3.46684 14.525 3.69184 14.2583L7.51684 9.79168C7.93351 9.30835 8.53351 9.01668 9.16684 8.99168C9.80018 8.97501 10.4252 9.20835 10.8752 9.65835L11.6668 10.45C11.8752 10.6583 12.1418 10.7583 12.4418 10.7583C12.7335 10.75 13.0002 10.6167 13.1918 10.3917L17.0168 5.92501C17.2418 5.66668 17.6335 5.63335 17.9002 5.85835C18.1585 6.08335 18.1918 6.47501 17.9668 6.74168L14.1418 11.2083C13.7252 11.6917 13.1252 11.9833 12.4918 12.0083C11.8502 12.025 11.2335 11.7917 10.7835 11.3417L10.0002 10.55C9.79184 10.3417 9.51684 10.2333 9.22518 10.2417C8.93351 10.25 8.66684 10.3833 8.47518 10.6083L4.65018 15.075C4.51684 15.2167 4.34184 15.2917 4.16684 15.2917Z" fill="#292D32"/>
<path d="M3.75851 15.1417L2.46547 16.6263L2.47135 16.6314L2.47727 16.6365L3.75851 15.1417ZM3.69184 14.2583L2.19647 12.9778L2.19179 12.9833L2.18714 12.9888L3.69184 14.2583ZM7.51684 9.79168L6.02569 8.5062L6.02147 8.51112L7.51684 9.79168ZM9.16684 8.99168L9.11505 7.02361L9.10212 7.02395L9.08919 7.02446L9.16684 8.99168ZM12.4418 10.7583V12.7271H12.47L12.4981 12.7263L12.4418 10.7583ZM13.1918 10.3917L11.6965 9.11112L11.6931 9.11501L13.1918 10.3917ZM17.0168 5.92501L15.5322 4.63198L15.5268 4.6382L15.5215 4.64446L17.0168 5.92501ZM17.9002 5.85835L19.1932 4.37375L19.1816 4.36361L19.1698 4.35365L17.9002 5.85835ZM17.9668 6.74168L19.4622 8.02224L19.4669 8.01677L19.4715 8.01127L17.9668 6.74168ZM14.1418 11.2083L15.633 12.4938L15.6372 12.4889L14.1418 11.2083ZM12.4918 12.0083L12.543 13.9764L12.5562 13.9761L12.5695 13.9756L12.4918 12.0083ZM10.7835 11.3417L9.38403 12.7264L9.39139 12.7338L10.7835 11.3417ZM10.0002 10.55L11.3997 9.16526L11.3923 9.1579L10.0002 10.55ZM8.47518 10.6083L9.97056 11.8889L9.97388 11.885L8.47518 10.6083ZM4.65018 15.075L6.08382 16.4243L6.11549 16.3907L6.14555 16.3556L4.65018 15.075ZM4.16684 13.3229C4.46579 13.3229 4.77793 13.4225 5.03976 13.6469L2.47727 16.6365C2.97243 17.0609 3.58457 17.2604 4.16684 17.2604V13.3229ZM5.05155 13.6571C5.59969 14.1345 5.66868 14.9684 5.19654 15.5279L2.18714 12.9888C1.265 14.0817 1.40067 15.6989 2.46547 16.6263L5.05155 13.6571ZM5.18722 15.5389L9.01222 11.0722L6.02147 8.51112L2.19647 12.9778L5.18722 15.5389ZM9.008 11.0772C9.07271 11.0021 9.1631 10.9621 9.2445 10.9589L9.08919 7.02446C7.90392 7.07125 6.79431 7.61461 6.02569 8.50621L9.008 11.0772ZM9.21864 10.9597C9.34507 10.9564 9.43773 11.0051 9.48306 11.0505L12.2673 8.26623C11.4126 7.41156 10.2553 6.99361 9.11505 7.02361L9.21864 10.9597ZM9.48306 11.0505L10.2747 11.8421L13.059 9.0579L12.2673 8.26623L9.48306 11.0505ZM10.2747 11.8421C10.8898 12.4572 11.6752 12.7271 12.4418 12.7271V8.7896C12.512 8.7896 12.617 8.80174 12.7385 8.84936C12.8628 8.8981 12.9729 8.97186 13.059 9.0579L10.2747 11.8421ZM12.4981 12.7263C13.3756 12.7012 14.1567 12.295 14.6905 11.6683L11.6931 9.11501C11.8436 8.93834 12.0914 8.79881 12.3856 8.7904L12.4981 12.7263ZM14.6872 11.6722L18.5122 7.20557L15.5215 4.64446L11.6965 9.11112L14.6872 11.6722ZM18.5014 7.21805C18.024 7.76619 17.1902 7.83519 16.6306 7.36305L19.1698 4.35365C18.0769 3.43151 16.4597 3.56717 15.5322 4.63198L18.5014 7.21805ZM16.6071 7.34295C16.059 6.86553 15.99 6.03166 16.4621 5.47209L19.4715 8.01127C20.3937 6.91837 20.258 5.30116 19.1932 4.37375L16.6071 7.34295ZM16.4715 5.46112L12.6465 9.92779L15.6372 12.4889L19.4622 8.02224L16.4715 5.46112ZM12.6507 9.92287C12.586 9.99794 12.4956 10.0379 12.4142 10.0411L12.5695 13.9756C13.7548 13.9288 14.8644 13.3854 15.633 12.4938L12.6507 9.92287ZM12.4407 10.0403C12.3088 10.0437 12.2232 9.99709 12.1756 9.94956L9.39139 12.7338C10.2439 13.5863 11.3916 14.0063 12.543 13.9764L12.4407 10.0403ZM12.183 9.95695L11.3996 9.16528L8.60071 11.9347L9.38405 12.7264L12.183 9.95695ZM11.3923 9.1579C10.7996 8.56524 10.0002 8.24998 9.16895 8.27373L9.2814 12.2096C9.03349 12.2167 8.78405 12.1181 8.60806 11.9421L11.3923 9.1579ZM9.16895 8.27373C8.29142 8.29881 7.51031 8.70501 6.97648 9.33168L9.97388 11.885C9.82338 12.0617 9.5756 12.2012 9.2814 12.2096L9.16895 8.27373ZM6.9798 9.32779L3.1548 13.7945L6.14555 16.3556L9.97055 11.8889L6.9798 9.32779ZM3.21653 13.7257C3.43702 13.4914 3.77296 13.3229 4.16684 13.3229V17.2604C4.91073 17.2604 5.59667 16.9419 6.08382 16.4243L3.21653 13.7257Z" fill="#7F7E7E" mask="url(#path-3-inside-2_10145_109)"/>
</g>
</g>
</g>
</svg>
