<svg width="20" height="21" viewBox="0 0 20 21" fill="none" xmlns="http://www.w3.org/2000/svg">
<g id="vuesax/linear/creative-commons">
<g id="creative-commons">
<path id="Vector" d="M10.0003 18.8334C5.40033 18.8334 1.66699 15.1001 1.66699 10.5001C1.66699 5.90008 5.40033 2.16675 10.0003 2.16675C14.6003 2.16675 18.3337 5.90008 18.3337 10.5001C18.3337 15.1001 14.6003 18.8334 10.0003 18.8334Z" stroke="#7F7E7E" stroke-width="1.5" stroke-linecap="round" stroke-linejoin="round"/>
<path id="Vector_2" d="M9.06628 12.2917C8.64128 12.6584 8.09127 12.8917 7.49127 12.8917C6.17461 12.8917 5.09961 11.8251 5.09961 10.5001C5.09961 9.17506 6.16627 8.1084 7.49127 8.1084C8.09961 8.1084 8.64962 8.33337 9.06628 8.70837" stroke="#7F7E7E" stroke-width="1.5" stroke-linecap="round" stroke-linejoin="round"/>
<path id="Vector_3" d="M14.9003 12.2917C14.4753 12.6584 13.9253 12.8917 13.3253 12.8917C12.0086 12.8917 10.9336 11.8251 10.9336 10.5001C10.9336 9.17506 12.0003 8.1084 13.3253 8.1084C13.9336 8.1084 14.4836 8.33337 14.9003 8.70837" stroke="#7F7E7E" stroke-width="1.5" stroke-linecap="round" stroke-linejoin="round"/>
</g>
</g>
</svg>
