<svg width="20" height="21" viewBox="0 0 20 21" fill="none" xmlns="http://www.w3.org/2000/svg">
<g id="vuesax/linear/cards">
<path id="Vector" d="M1.66699 11.0083H15.8337" stroke="#7F7E7E" stroke-width="1.5" stroke-miterlimit="10" stroke-linecap="round" stroke-linejoin="round"/>
<path id="Vector_2" d="M15.8337 9.06659V15.0249C15.8087 17.3999 15.1586 17.9999 12.6836 17.9999H4.81702C2.30035 17.9999 1.66699 17.3749 1.66699 14.8916V9.06659C1.66699 6.81658 2.19199 6.09159 4.16699 5.97492C4.36699 5.96659 4.58368 5.95825 4.81702 5.95825H12.6836C15.2003 5.95825 15.8337 6.58325 15.8337 9.06659Z" stroke="#7F7E7E" stroke-width="1.5" stroke-linecap="round" stroke-linejoin="round"/>
<path id="Vector_3" d="M18.3337 6.10833V11.9333C18.3337 14.1833 17.8087 14.9083 15.8337 15.025V9.06667C15.8337 6.58333 15.2003 5.95833 12.6836 5.95833H4.81702C4.58368 5.95833 4.36699 5.96667 4.16699 5.975C4.19199 3.6 4.84202 3 7.31702 3H15.1836C17.7003 3 18.3337 3.625 18.3337 6.10833Z" stroke="#7F7E7E" stroke-width="1.5" stroke-linecap="round" stroke-linejoin="round"/>
<path id="Vector_4" d="M4.375 15.3416H5.80831" stroke="#7F7E7E" stroke-width="1.5" stroke-miterlimit="10" stroke-linecap="round" stroke-linejoin="round"/>
<path id="Vector_5" d="M7.5918 15.3416H10.4585" stroke="#7F7E7E" stroke-width="1.5" stroke-miterlimit="10" stroke-linecap="round" stroke-linejoin="round"/>
</g>
</svg>
