<svg width="20" height="21" viewBox="0 0 20 21" fill="none" xmlns="http://www.w3.org/2000/svg">
<g id="vuesax/linear/element-3">
<g id="element-3">
<path id="Vector" d="M18.3333 7.60008V3.81675C18.3333 2.64175 17.8 2.16675 16.475 2.16675H13.1083C11.7833 2.16675 11.25 2.64175 11.25 3.81675V7.59175C11.25 8.77508 11.7833 9.24175 13.1083 9.24175H16.475C17.8 9.25008 18.3333 8.77508 18.3333 7.60008Z" stroke="#7F7E7E" stroke-width="1.5" stroke-linecap="round" stroke-linejoin="round"/>
<path id="Vector_2" d="M18.3333 16.975V13.6083C18.3333 12.2833 17.8 11.75 16.475 11.75H13.1083C11.7833 11.75 11.25 12.2833 11.25 13.6083V16.975C11.25 18.3 11.7833 18.8333 13.1083 18.8333H16.475C17.8 18.8333 18.3333 18.3 18.3333 16.975Z" stroke="#7F7E7E" stroke-width="1.5" stroke-linecap="round" stroke-linejoin="round"/>
<path id="Vector_3" d="M8.75033 7.60008V3.81675C8.75033 2.64175 8.21699 2.16675 6.89199 2.16675H3.52533C2.20033 2.16675 1.66699 2.64175 1.66699 3.81675V7.59175C1.66699 8.77508 2.20033 9.24175 3.52533 9.24175H6.89199C8.21699 9.25008 8.75033 8.77508 8.75033 7.60008Z" stroke="#7F7E7E" stroke-width="1.5" stroke-linecap="round" stroke-linejoin="round"/>
<path id="Vector_4" d="M8.75033 16.975V13.6083C8.75033 12.2833 8.21699 11.75 6.89199 11.75H3.52533C2.20033 11.75 1.66699 12.2833 1.66699 13.6083V16.975C1.66699 18.3 2.20033 18.8333 3.52533 18.8333H6.89199C8.21699 18.8333 8.75033 18.3 8.75033 16.975Z" stroke="#7F7E7E" stroke-width="1.5" stroke-linecap="round" stroke-linejoin="round"/>
</g>
</g>
</svg>
