<svg width="20" height="21" viewBox="0 0 20 21" fill="none" xmlns="http://www.w3.org/2000/svg">
<g id="vuesax/linear/trash">
<g id="trash">
<path id="Vector" d="M17.5 5.48332C14.725 5.20832 11.9333 5.06665 9.15 5.06665C7.5 5.06665 5.85 5.14998 4.2 5.31665L2.5 5.48332" stroke="#7F7E7E" stroke-width="1.5" stroke-linecap="round" stroke-linejoin="round"/>
<path id="Vector_2" d="M7.08594 4.64175L7.26927 3.55008C7.4026 2.75841 7.5026 2.16675 8.91094 2.16675H11.0943C12.5026 2.16675 12.6109 2.79175 12.7359 3.55841L12.9193 4.64175" stroke="#7F7E7E" stroke-width="1.5" stroke-linecap="round" stroke-linejoin="round"/>
<path id="Vector_3" d="M15.7057 8.1167L15.1641 16.5084C15.0724 17.8167 14.9974 18.8334 12.6724 18.8334H7.3224C4.9974 18.8334 4.9224 17.8167 4.83073 16.5084L4.28906 8.1167" stroke="#7F7E7E" stroke-width="1.5" stroke-linecap="round" stroke-linejoin="round"/>
<path id="Vector_4" d="M8.60938 14.25H11.3844" stroke="#7F7E7E" stroke-width="1.5" stroke-linecap="round" stroke-linejoin="round"/>
<path id="Vector_5" d="M7.91406 10.9167H12.0807" stroke="#7F7E7E" stroke-width="1.5" stroke-linecap="round" stroke-linejoin="round"/>
</g>
</g>
</svg>
