<svg width="24" height="24" viewBox="0 0 24 24" fill="none" xmlns="http://www.w3.org/2000/svg">
<g id="vuesax/linear/dislike">
<g id="dislike">
<path id="Vector" d="M16.5217 5.6499L13.4217 3.2499C13.0217 2.8499 12.1217 2.6499 11.5217 2.6499H7.72169C6.52169 2.6499 5.22169 3.5499 4.92169 4.7499L2.52169 12.0499C2.02169 13.4499 2.92169 14.6499 4.42169 14.6499H8.42169C9.02169 14.6499 9.52169 15.1499 9.42169 15.8499L8.92169 19.0499C8.72169 19.9499 9.32169 20.9499 10.2217 21.2499C11.0217 21.5499 12.0217 21.1499 12.4217 20.5499L16.5217 14.4499" stroke="#313131" stroke-width="2" stroke-miterlimit="10"/>
<path id="Vector_2" d="M21.6172 5.65V15.45C21.6172 16.85 21.0172 17.35 19.6172 17.35H18.6172C17.2172 17.35 16.6172 16.85 16.6172 15.45V5.65C16.6172 4.25 17.2172 3.75 18.6172 3.75H19.6172C21.0172 3.75 21.6172 4.25 21.6172 5.65Z" stroke="#313131" stroke-width="2" stroke-linecap="round" stroke-linejoin="round"/>
</g>
</g>
</svg>
