<svg width="20" height="21" viewBox="0 0 20 21" fill="none" xmlns="http://www.w3.org/2000/svg">
<g id="vuesax/linear/user-remove">
<g id="user-remove">
<path id="Vector" d="M9.99967 10.5001C12.3009 10.5001 14.1663 8.6346 14.1663 6.33341C14.1663 4.03223 12.3009 2.16675 9.99967 2.16675C7.69849 2.16675 5.83301 4.03223 5.83301 6.33341C5.83301 8.6346 7.69849 10.5001 9.99967 10.5001Z" stroke="#7F7E7E" stroke-width="1.5" stroke-linecap="round" stroke-linejoin="round"/>
<path id="Vector_2" d="M2.8418 18.8333C2.8418 15.6083 6.05013 13 10.0001 13C10.8001 13 11.5751 13.1083 12.3001 13.3083" stroke="#7F7E7E" stroke-width="1.5" stroke-linecap="round" stroke-linejoin="round"/>
<path id="Vector_3" d="M18.3337 15.5001C18.3337 15.7667 18.3003 16.0251 18.2337 16.2751C18.1587 16.6084 18.0253 16.9334 17.8503 17.2167C17.2753 18.1834 16.217 18.8334 15.0003 18.8334C14.142 18.8334 13.367 18.5084 12.7837 17.9751C12.5337 17.7584 12.317 17.5001 12.1503 17.2167C11.842 16.7167 11.667 16.1251 11.667 15.5001C11.667 14.6001 12.0253 13.7751 12.6087 13.1751C13.217 12.5501 14.067 12.1667 15.0003 12.1667C15.9837 12.1667 16.8753 12.5918 17.4753 13.2751C18.0087 13.8668 18.3337 14.6501 18.3337 15.5001Z" stroke="#7F7E7E" stroke-width="1.5" stroke-miterlimit="10" stroke-linecap="round" stroke-linejoin="round"/>
<g id="Group">
<path id="Vector_4" d="M15.8579 14.6167L14.0996 16.375" stroke="#7F7E7E" stroke-width="1.5" stroke-miterlimit="10" stroke-linecap="round" stroke-linejoin="round"/>
<path id="Vector_5" d="M14.1162 14.6333L15.8829 16.3916" stroke="#7F7E7E" stroke-width="1.5" stroke-miterlimit="10" stroke-linecap="round" stroke-linejoin="round"/>
</g>
</g>
</g>
</svg>
