<svg width="32" height="32" viewBox="0 0 32 32" fill="none" xmlns="http://www.w3.org/2000/svg">
<g id="vuesax/bold/gallery-export">
<g id="gallery-export">
<path id="Vector" d="M25.5697 2.25235C25.5609 2.25468 25.5493 2.25788 25.5372 2.26167C25.5164 2.26817 25.4899 2.27752 25.4603 2.29116C25.34 2.34352 25.1864 2.42632 25.0595 2.55328L25.413 2.90683L25.0595 2.55328L23.3928 4.21994C22.8775 4.73521 22.8775 5.58512 23.3928 6.10038C23.7333 6.44091 24.22 6.55639 24.6597 6.44682V8.4935C24.6597 9.2363 25.2569 9.8335 25.9997 9.8335C26.7425 9.8335 27.3397 9.2363 27.3397 8.4935V6.4467C27.4472 6.47353 27.5571 6.48683 27.6663 6.48683C28.0018 6.48683 28.3435 6.36145 28.6029 6.10399C29.1363 5.58804 29.1352 4.73524 28.6199 4.21994L26.9532 2.55328L26.8068 2.40683H26.7686C26.694 2.35414 26.6141 2.30999 26.53 2.27392L26.4356 2.2335H26.3953C26.2733 2.19449 26.1577 2.18016 26.0397 2.18016H26.0395H26.0394H26.0392H26.039H26.0389H26.0387H26.0386H26.0384H26.0383H26.0381H26.038H26.0378H26.0376H26.0375H26.0373H26.0372H26.037H26.0369H26.0367H26.0365H26.0364H26.0362H26.0361H26.0359H26.0358H26.0356H26.0355H26.0353H26.0351H26.035H26.0348H26.0347H26.0345H26.0344H26.0342H26.034H26.0339H26.0337H26.0336H26.0334H26.0333H26.0331H26.033H26.0328H26.0326H26.0325H26.0323H26.0322H26.032H26.0319H26.0317H26.0315H26.0314H26.0312H26.0311H26.0309H26.0308H26.0306H26.0305H26.0303H26.0301H26.03H26.0298H26.0297H26.0295H26.0294H26.0292H26.029H26.0289H26.0287H26.0286H26.0284H26.0283H26.0281H26.028H26.0278H26.0276H26.0275H26.0273H26.0272H26.027H26.0269H26.0267H26.0265H26.0264H26.0262H26.0261H26.0259H26.0258H26.0256H26.0255H26.0253H26.0251H26.025H26.0248H26.0247H26.0245H26.0244H26.0242H26.024H26.0239H26.0237H26.0236H26.0234H26.0233H26.0231H26.023H26.0228H26.0226H26.0225H26.0223H26.0222H26.022H26.0219H26.0217H26.0215H26.0214H26.0212H26.0211H26.0209H26.0208H26.0206H26.0205H26.0203H26.0201H26.02H26.0198H26.0197H26.0195H26.0194H26.0192H26.019H26.0189H26.0187H26.0186H26.0184H26.0183H26.0181H26.018H26.0178H26.0176H26.0175H26.0173H26.0172H26.017H26.0169H26.0167H26.0165H26.0164H26.0162H26.0161H26.0159H26.0158H26.0156H26.0155H26.0153H26.0151H26.015H26.0148H26.0147H26.0145H26.0144H26.0142H26.014H26.0139H26.0137H26.0136H26.0134H26.0133H26.0131H26.013H26.0128H26.0126H26.0125H26.0123H26.0122H26.012H26.0119H26.0117H26.0115H26.0114H26.0112H26.0111H26.0109H26.0108H26.0106H26.0105H26.0103H26.0101H26.01H26.0098H26.0097H26.0095H26.0094H26.0092H26.009H26.0089H26.0087H26.0086H26.0084H26.0083H26.0081H26.008H26.0078H26.0076H26.0075H26.0073H26.0072H26.007H26.0069H26.0067H26.0065H26.0064H26.0062H26.0061H26.0059H26.0058H26.0056H26.0055H26.0053H26.0051H26.005H26.0048H26.0047H26.0045H26.0044H26.0042H26.004H26.0039H26.0037H26.0036H26.0034H26.0033H26.0031H26.003H26.0028H26.0026H26.0025H26.0023H26.0022H26.002H26.0019H26.0017H26.0015H26.0014H26.0012H26.0011H26.0009H26.0008H26.0006H26.0005H26.0003H26.0001H26H25.9998H25.9997H25.9995H25.9994H25.9992H25.999H25.9989H25.9987H25.9986H25.9984H25.9983H25.9981H25.998H25.9978H25.9976H25.9975H25.9973H25.9972H25.997H25.9969H25.9967H25.9965H25.9964H25.9962H25.9961H25.9959H25.9958H25.9956H25.9955H25.9953H25.9951H25.995H25.9948H25.9947H25.9945H25.9944H25.9942H25.994H25.9939H25.9937H25.9936H25.9934H25.9933H25.9931H25.993H25.9928H25.9926H25.9925H25.9923H25.9922H25.992H25.9919H25.9917H25.9915H25.9914H25.9912H25.9911H25.9909H25.9908H25.9906H25.9905H25.9903H25.9901H25.99H25.9898H25.9897H25.9895H25.9894H25.9892H25.989H25.9889H25.9887H25.9886H25.9884H25.9883H25.9881H25.988H25.9878H25.9876H25.9875H25.9873H25.9872H25.987H25.9869H25.9867H25.9865H25.9864H25.9862H25.9861H25.9859H25.9858H25.9856H25.9855H25.9853H25.9851H25.985H25.9848H25.9847H25.9845H25.9844H25.9842H25.984H25.9839H25.9837H25.9836H25.9834H25.9833H25.9831H25.983H25.9828H25.9826H25.9825H25.9823H25.9822H25.982H25.9819H25.9817H25.9815H25.9814H25.9812H25.9811H25.9809H25.9808H25.9806H25.9805H25.9803H25.9801H25.98H25.9798H25.9797H25.9795H25.9794H25.9792H25.979H25.9789H25.9787H25.9786H25.9784H25.9783H25.9781H25.978H25.9778H25.9776H25.9775H25.9773H25.9772H25.977H25.9769H25.9767H25.9765H25.9764H25.9762H25.9761H25.9759H25.9758H25.9756H25.9755H25.9753H25.9751H25.975H25.9748H25.9747H25.9745H25.9744H25.9742H25.974H25.9739H25.9737H25.9736H25.9734H25.9733H25.9731H25.973H25.9728H25.9726H25.9725H25.9723H25.9722H25.972H25.9719H25.9717H25.9715H25.9714H25.9712H25.9711H25.9709H25.9708H25.9706H25.9705H25.9703H25.9701H25.97H25.9698H25.9697H25.9695H25.9694H25.9692H25.969H25.9689H25.9687H25.9686H25.9684H25.9683H25.9681H25.968H25.9678H25.9676H25.9675H25.9673H25.9672H25.967H25.9669H25.9667H25.9665H25.9664H25.9662H25.9661H25.9659H25.9658H25.9656H25.9655H25.9653H25.9651H25.965H25.9648H25.9647H25.9645H25.9644H25.9642H25.964H25.9639H25.9637H25.9636H25.9634H25.9633H25.9631H25.963H25.9628H25.9626H25.9625H25.9623H25.9622H25.962H25.9619H25.9617H25.9615H25.9614H25.9612H25.9611H25.9609H25.9608H25.9606H25.9605H25.9603H25.9601H25.96H25.9598H25.9597C25.8208 2.18016 25.6938 2.20395 25.5697 2.25235ZM26.5997 2.40683C26.5943 2.40683 26.596 2.40673 26.6018 2.40683H26.5997ZM24.0397 1.8335H27.9597C28.7064 1.8335 29.2441 2.05498 29.5945 2.40538C29.9449 2.75579 30.1663 3.29342 30.1663 4.04016V7.96016C30.1663 8.70691 29.9449 9.24454 29.5945 9.59494C29.2441 9.94535 28.7064 10.1668 27.9597 10.1668H24.0397C23.2929 10.1668 22.7553 9.94535 22.4049 9.59494C22.0545 9.24454 21.833 8.70691 21.833 7.96016V4.04016C21.833 3.29342 22.0545 2.75579 22.4049 2.40538C22.7553 2.05498 23.2929 1.8335 24.0397 1.8335Z" fill="#292D32" stroke="#1C4728"/>
<path id="Vector_2" d="M14.6738 10.6665C14.6738 12.1429 13.4769 13.3398 12.0005 13.3398C10.524 13.3398 9.32715 12.1429 9.32715 10.6665C9.32715 9.19006 10.524 7.99316 12.0005 7.99316C13.4769 7.99316 14.6738 9.19006 14.6738 10.6665Z" fill="#292D32" stroke="#1C4728"/>
<path id="Vector_3" d="M28.8337 11.0761V21.5865C28.8337 23.9137 28.1419 25.7112 26.9268 26.9263C25.7116 28.1414 23.9142 28.8332 21.587 28.8332H10.4137C7.16459 28.8332 4.91767 27.4834 3.86917 25.167L3.86918 25.167L3.86747 25.1633C3.41036 24.1749 3.16699 22.9825 3.16699 21.5865V10.4132C3.16699 8.08594 3.85875 6.28852 5.07388 5.07339C6.289 3.85827 8.08643 3.1665 10.4137 3.1665H20.9241C20.8611 3.44361 20.8337 3.73535 20.8337 4.03984V4.1665H10.4137C8.44959 4.1665 6.86671 4.68635 5.77677 5.77628C4.68684 6.86622 4.16699 8.4491 4.16699 10.4132V21.5865C4.16699 22.6583 4.35061 23.5874 4.66828 24.396L4.89575 24.975L5.41229 24.6283L10.399 21.2817L10.4001 21.2809C11.2851 20.6835 12.5413 20.7573 13.3114 21.4298L13.3169 21.4345L13.3225 21.4391L13.772 21.8093C14.9996 22.86 16.9533 22.8589 18.1793 21.8059C18.1793 21.8059 18.1793 21.8059 18.1793 21.8059C18.1794 21.8059 18.1794 21.8058 18.1795 21.8058L23.7259 17.0459L23.7261 17.0458C24.5787 16.3134 25.9819 16.3134 26.8345 17.0458L26.8374 17.0482L27.0107 17.1949L27.8337 17.8912V16.8132V11.1665H27.9603C28.2648 11.1665 28.5566 11.139 28.8337 11.0761Z" fill="#292D32" stroke="#1C4728"/>
</g>
</g>
</svg>
