<svg width="20" height="20" viewBox="0 0 20 20" fill="none" xmlns="http://www.w3.org/2000/svg">
<g id="vuesax/linear/image">
<g id="image">
<path id="Vector" d="M18.0655 14.1333L15.4571 8.04161C14.5738 5.97494 12.9488 5.89161 11.8571 7.85828L10.2821 10.6999C9.48213 12.1416 7.99047 12.2666 6.95713 10.9749L6.7738 10.7416C5.6988 9.39161 4.18213 9.55828 3.40713 11.0999L1.9738 13.9749C0.965465 15.9749 2.4238 18.3333 4.65713 18.3333H15.2905C17.4571 18.3333 18.9155 16.1249 18.0655 14.1333Z" stroke="#0B0B0B" stroke-width="1.4" stroke-linecap="round" stroke-linejoin="round"/>
<path id="Vector_2" d="M5.8125 6.66675C7.19321 6.66675 8.3125 5.54746 8.3125 4.16675C8.3125 2.78604 7.19321 1.66675 5.8125 1.66675C4.43179 1.66675 3.3125 2.78604 3.3125 4.16675C3.3125 5.54746 4.43179 6.66675 5.8125 6.66675Z" stroke="#0B0B0B" stroke-width="1.4" stroke-linecap="round" stroke-linejoin="round"/>
</g>
</g>
</svg>
