<svg width="20" height="21" viewBox="0 0 20 21" fill="none" xmlns="http://www.w3.org/2000/svg">
<g id="vuesax/linear/user-tag">
<g id="user-tag">
<path id="Vector" d="M15 16.2167H14.3667C13.7 16.2167 13.0667 16.475 12.6 16.9417L11.175 18.35C10.525 18.9917 9.46668 18.9917 8.81668 18.35L7.39166 16.9417C6.925 16.475 6.28333 16.2167 5.625 16.2167H5C3.61667 16.2167 2.5 15.1084 2.5 13.7417V4.65002C2.5 3.28336 3.61667 2.17505 5 2.17505H15C16.3833 2.17505 17.5 3.28336 17.5 4.65002V13.7417C17.5 15.1001 16.3833 16.2167 15 16.2167Z" stroke="#7F7E7E" stroke-width="1.5" stroke-miterlimit="10" stroke-linecap="round" stroke-linejoin="round"/>
<g id="Group">
<path id="Vector_2" d="M10.0003 8.83326C11.0726 8.83326 11.942 7.96393 11.942 6.89158C11.942 5.81923 11.0726 4.94995 10.0003 4.94995C8.92792 4.94995 8.05859 5.81923 8.05859 6.89158C8.05859 7.96393 8.92792 8.83326 10.0003 8.83326Z" stroke="#7F7E7E" stroke-width="1.5" stroke-linecap="round" stroke-linejoin="round"/>
<path id="Vector_3" d="M13.3337 13.5499C13.3337 12.0499 11.842 10.8333 10.0003 10.8333C8.15866 10.8333 6.66699 12.0499 6.66699 13.5499" stroke="#7F7E7E" stroke-width="1.5" stroke-linecap="round" stroke-linejoin="round"/>
</g>
</g>
</g>
</svg>
