<svg width="22" height="22" viewBox="0 0 22 22" fill="none" xmlns="http://www.w3.org/2000/svg">
<g id="vuesax/linear/mobile">
<g id="mobile">
<path id="Vector" d="M21 6V16C21 20 19.75 21 14.75 21H7.25C2.25 21 1 20 1 16V6C1 2 2.25 1 7.25 1H14.75C19.75 1 21 2 21 6Z" stroke="#7F7E7E" stroke-width="1.96875" stroke-linecap="round" stroke-linejoin="round"/>
<path id="Vector_2" d="M13.5 4.5H8.5" stroke="#7F7E7E" stroke-width="1.96875" stroke-linecap="round" stroke-linejoin="round"/>
<path id="Vector_3" d="M11 18.1C12.0701 18.1 12.9375 17.406 12.9375 16.55C12.9375 15.694 12.0701 15 11 15C9.92995 15 9.0625 15.694 9.0625 16.55C9.0625 17.406 9.92995 18.1 11 18.1Z" stroke="#7F7E7E" stroke-width="1.96875" stroke-linecap="round" stroke-linejoin="round"/>
</g>
</g>
</svg>
