<svg width="26" height="26" viewBox="0 0 26 26" fill="none" xmlns="http://www.w3.org/2000/svg">
<path d="M13.0209 3.53125C9.57295 3.53125 6.77086 6.33333 6.77086 9.78125V12.7917C6.77086 13.4271 6.50003 14.3958 6.17711 14.9375L4.9792 16.9271C4.23961 18.1563 4.75003 19.5208 6.1042 19.9792C10.5938 21.4792 15.4375 21.4792 19.9271 19.9792C21.1875 19.5625 21.7396 18.0729 21.0521 16.9271L19.8542 14.9375C19.5417 14.3958 19.2709 13.4271 19.2709 12.7917V9.78125C19.2709 6.34375 16.4584 3.53125 13.0209 3.53125Z" stroke="#676666" stroke-width="1.4" stroke-miterlimit="10" stroke-linecap="round"/>
<path d="M14.9479 3.83325C14.625 3.7395 14.2917 3.66659 13.9479 3.62492C12.9479 3.49992 11.9896 3.57284 11.0938 3.83325C11.3958 3.06242 12.1458 2.52075 13.0208 2.52075C13.8958 2.52075 14.6458 3.06242 14.9479 3.83325Z" stroke="#676666" stroke-width="1.4" stroke-miterlimit="10" stroke-linecap="round" stroke-linejoin="round"/>
<path d="M16.1455 20.3542C16.1455 22.073 14.7393 23.4792 13.0205 23.4792C12.1663 23.4792 11.3747 23.1251 10.8122 22.5626C10.2497 22.0001 9.89551 21.2084 9.89551 20.3542" fill="#00A991"/>
</svg>
