<svg width="20" height="21" viewBox="0 0 20 21" fill="none" xmlns="http://www.w3.org/2000/svg">
<g id="vuesax/linear/ticket">
<g id="ticket">
<path id="Vector" d="M16.2503 10.9166C16.2503 9.76659 17.1837 8.83325 18.3337 8.83325V7.99992C18.3337 4.66659 17.5003 3.83325 14.167 3.83325H5.83366C2.50033 3.83325 1.66699 4.66659 1.66699 7.99992V8.41659C2.81699 8.41659 3.75033 9.34992 3.75033 10.4999C3.75033 11.6499 2.81699 12.5833 1.66699 12.5833V12.9999C1.66699 16.3333 2.50033 17.1666 5.83366 17.1666H14.167C17.5003 17.1666 18.3337 16.3333 18.3337 12.9999C17.1837 12.9999 16.2503 12.0666 16.2503 10.9166Z" stroke="#7F7E7E" stroke-width="1.5" stroke-linecap="round" stroke-linejoin="round"/>
<path id="Vector_2" d="M8.33301 3.83325L8.33301 17.1666" stroke="#7F7E7E" stroke-width="1.5" stroke-linecap="round" stroke-linejoin="round" stroke-dasharray="5 5"/>
</g>
</g>
</svg>
