<svg width="20" height="21" viewBox="0 0 20 21" fill="none" xmlns="http://www.w3.org/2000/svg">
<path d="M10.1334 9.55817C10.05 9.54984 9.95005 9.54984 9.85838 9.55817C7.87505 9.4915 6.30005 7.8665 6.30005 5.8665C6.30005 3.82484 7.95005 2.1665 10 2.1665C12.0417 2.1665 13.7 3.82484 13.7 5.8665C13.6917 7.8665 12.1167 9.4915 10.1334 9.55817Z" stroke="#7F7E7E" stroke-width="1.5" stroke-linecap="round" stroke-linejoin="round"/>
<path d="M5.96672 12.6335C3.95006 13.9835 3.95006 16.1835 5.96672 17.5252C8.25839 19.0585 12.0167 19.0585 14.3084 17.5252C16.3251 16.1752 16.3251 13.9752 14.3084 12.6335C12.0251 11.1085 8.26672 11.1085 5.96672 12.6335Z" stroke="#7F7E7E" stroke-width="1.5" stroke-linecap="round" stroke-linejoin="round"/>
</svg>
