<svg width="20" height="21" viewBox="0 0 20 21" fill="none" xmlns="http://www.w3.org/2000/svg">
<g id="vuesax/linear/people">
<g id="people">
<g id="Group">
<path id="Vector" d="M15.0004 6.46675C14.9504 6.45842 14.8921 6.45842 14.8421 6.46675C13.6921 6.42508 12.7754 5.48342 12.7754 4.31675C12.7754 3.12508 13.7337 2.16675 14.9254 2.16675C16.1171 2.16675 17.0754 3.13342 17.0754 4.31675C17.0671 5.48342 16.1504 6.42508 15.0004 6.46675Z" stroke="#7F7E7E" stroke-width="1.5" stroke-linecap="round" stroke-linejoin="round"/>
<path id="Vector_2" d="M14.1422 12.5333C15.2839 12.725 16.5422 12.525 17.4255 11.9333C18.6005 11.15 18.6005 9.86664 17.4255 9.08331C16.5339 8.49164 15.2589 8.29163 14.1172 8.49163" stroke="#7F7E7E" stroke-width="1.5" stroke-linecap="round" stroke-linejoin="round"/>
</g>
<g id="Group_2">
<path id="Vector_3" d="M4.97539 6.46675C5.02539 6.45842 5.08372 6.45842 5.13372 6.46675C6.28372 6.42508 7.20039 5.48342 7.20039 4.31675C7.20039 3.12508 6.24206 2.16675 5.05039 2.16675C3.85873 2.16675 2.90039 3.13342 2.90039 4.31675C2.90872 5.48342 3.82539 6.42508 4.97539 6.46675Z" stroke="#7F7E7E" stroke-width="1.5" stroke-linecap="round" stroke-linejoin="round"/>
<path id="Vector_4" d="M5.83353 12.5333C4.69186 12.725 3.43353 12.525 2.5502 11.9333C1.3752 11.15 1.3752 9.86664 2.5502 9.08331C3.44186 8.49164 4.71686 8.29163 5.85853 8.49163" stroke="#7F7E7E" stroke-width="1.5" stroke-linecap="round" stroke-linejoin="round"/>
</g>
<g id="Group_3">
<path id="Vector_5" d="M9.99941 12.6916C9.94941 12.6833 9.89108 12.6833 9.84108 12.6916C8.69108 12.6499 7.77441 11.7083 7.77441 10.5416C7.77441 9.34994 8.73275 8.3916 9.92441 8.3916C11.1161 8.3916 12.0744 9.35827 12.0744 10.5416C12.0661 11.7083 11.1494 12.6583 9.99941 12.6916Z" stroke="#7F7E7E" stroke-width="1.5" stroke-linecap="round" stroke-linejoin="round"/>
<path id="Vector_6" d="M7.57461 15.3166C6.39961 16.0999 6.39961 17.3832 7.57461 18.1666C8.90794 19.0582 11.0913 19.0582 12.4246 18.1666C13.5996 17.3832 13.5996 16.0999 12.4246 15.3166C11.0996 14.4332 8.90794 14.4332 7.57461 15.3166Z" stroke="#7F7E7E" stroke-width="1.5" stroke-linecap="round" stroke-linejoin="round"/>
</g>
</g>
</g>
</svg>
