<svg width="20" height="21" viewBox="0 0 20 21" fill="none" xmlns="http://www.w3.org/2000/svg">
<g id="vuesax/linear/profile-2user">
<g id="profile-2user">
<path id="Vector" d="M7.63314 9.55841C7.5498 9.55008 7.4498 9.55008 7.35814 9.55841C5.3748 9.49175 3.7998 7.86675 3.7998 5.86675C3.7998 3.82508 5.4498 2.16675 7.4998 2.16675C9.54147 2.16675 11.1998 3.82508 11.1998 5.86675C11.1915 7.86675 9.61647 9.49175 7.63314 9.55841Z" stroke="#7F7E7E" stroke-width="1.5" stroke-linecap="round" stroke-linejoin="round"/>
<path id="Vector_2" d="M13.6747 3.83325C15.2914 3.83325 16.5914 5.14159 16.5914 6.74992C16.5914 8.32492 15.3414 9.60825 13.7831 9.66659C13.7164 9.65825 13.6414 9.65825 13.5664 9.66659" stroke="#7F7E7E" stroke-width="1.5" stroke-linecap="round" stroke-linejoin="round"/>
<path id="Vector_3" d="M3.4666 12.6333C1.44993 13.9833 1.44993 16.1833 3.4666 17.5249C5.75827 19.0583 9.5166 19.0583 11.8083 17.5249C13.8249 16.1749 13.8249 13.9749 11.8083 12.6333C9.52494 11.1083 5.7666 11.1083 3.4666 12.6333Z" stroke="#7F7E7E" stroke-width="1.5" stroke-linecap="round" stroke-linejoin="round"/>
<path id="Vector_4" d="M15.2832 17.1667C15.8832 17.0417 16.4499 16.8001 16.9165 16.4417C18.2165 15.4667 18.2165 13.8584 16.9165 12.8834C16.4582 12.5334 15.8999 12.3001 15.3082 12.1667" stroke="#7F7E7E" stroke-width="1.5" stroke-linecap="round" stroke-linejoin="round"/>
</g>
</g>
</svg>
