<svg width="24" height="24" viewBox="0 0 24 24" fill="none" xmlns="http://www.w3.org/2000/svg">
<g id="vuesax/linear/like">
<g id="like">
<path id="Vector" d="M7.47656 18.35L10.5766 20.75C10.9766 21.15 11.8766 21.35 12.4766 21.35H16.2766C17.4766 21.35 18.7766 20.45 19.0766 19.25L21.4766 11.95C21.9766 10.55 21.0766 9.34997 19.5766 9.34997H15.5766C14.9766 9.34997 14.4766 8.84997 14.5766 8.14997L15.0766 4.94997C15.2766 4.04997 14.6766 3.04997 13.7766 2.74997C12.9766 2.44997 11.9766 2.84997 11.5766 3.44997L7.47656 9.54997" stroke="#313131" stroke-width="2" stroke-miterlimit="10"/>
<path id="Vector_2" d="M2.38281 18.3499V8.5499C2.38281 7.1499 2.98281 6.6499 4.38281 6.6499H5.38281C6.78281 6.6499 7.38281 7.1499 7.38281 8.5499V18.3499C7.38281 19.7499 6.78281 20.2499 5.38281 20.2499H4.38281C2.98281 20.2499 2.38281 19.7499 2.38281 18.3499Z" stroke="#313131" stroke-width="2" stroke-linecap="round" stroke-linejoin="round"/>
</g>
</g>
</svg>
