<svg width="20" height="21" viewBox="0 0 20 21" fill="none" xmlns="http://www.w3.org/2000/svg">
<g id="vuesax/linear/profile">
<g id="profile">
<path id="Vector" d="M10.1331 9.55841C10.0498 9.55008 9.9498 9.55008 9.85814 9.55841C7.8748 9.49175 6.2998 7.86675 6.2998 5.86675C6.2998 3.82508 7.9498 2.16675 9.9998 2.16675C12.0415 2.16675 13.6998 3.82508 13.6998 5.86675C13.6915 7.86675 12.1165 9.49175 10.1331 9.55841Z" stroke="#7F7E7E" stroke-width="1.5" stroke-linecap="round" stroke-linejoin="round"/>
<path id="Vector_2" d="M5.9666 12.6333C3.94993 13.9833 3.94993 16.1833 5.9666 17.5249C8.25827 19.0583 12.0166 19.0583 14.3083 17.5249C16.3249 16.1749 16.3249 13.9749 14.3083 12.6333C12.0249 11.1083 8.2666 11.1083 5.9666 12.6333Z" stroke="#7F7E7E" stroke-width="1.5" stroke-linecap="round" stroke-linejoin="round"/>
</g>
</g>
</svg>
