<svg width="20" height="21" viewBox="0 0 20 21" fill="none" xmlns="http://www.w3.org/2000/svg">
<g id="vuesax/linear/receipt">
<path id="Vector" d="M18.332 5.50008V7.51675C18.332 8.83342 17.4987 9.66675 16.182 9.66675H13.332V3.84175C13.332 2.91675 14.0904 2.16675 15.0154 2.16675C15.9237 2.17508 16.757 2.54175 17.357 3.14175C17.957 3.75008 18.332 4.58341 18.332 5.50008Z" stroke="#7F7E7E" stroke-width="1.5" stroke-miterlimit="10" stroke-linecap="round" stroke-linejoin="round"/>
<path id="Vector_2" d="M1.66797 6.33341V18.0001C1.66797 18.6917 2.45128 19.0834 3.00128 18.6667L4.4263 17.6001C4.75963 17.3501 5.22631 17.3834 5.52631 17.6834L6.90962 19.0751C7.23462 19.4001 7.76799 19.4001 8.09299 19.0751L9.49298 17.6751C9.78465 17.3834 10.2513 17.3501 10.5763 17.6001L12.0013 18.6667C12.5513 19.0751 13.3346 18.6834 13.3346 18.0001V3.83341C13.3346 2.91675 14.0846 2.16675 15.0013 2.16675H5.83464H5.0013C2.5013 2.16675 1.66797 3.65841 1.66797 5.50008V6.33341Z" stroke="#7F7E7E" stroke-width="1.5" stroke-miterlimit="10" stroke-linecap="round" stroke-linejoin="round"/>
</g>
</svg>
